{
  "accessors": [
    {
      "bufferView": 2,
      "componentType": 5126,
      "count": 7808,
      "max": [
        0.1309749186038971,
        0.44310712814331055,
        0.21164946258068085
      ],
      "min": [
        -0.14974576234817505,
        -0.43020099401474,
        -0.10469060391187668
      ],
      "type": "VEC3"
    },
    {
      "bufferView": 2,
      "byteOffset": 93696,
      "componentType": 5126,
      "count": 7808,
      "max": [
        0.9999404549598694,
        0.9991680383682251,
        0.9999979734420776
      ],
      "min": [
        -0.9999397397041321,
        -0.998725950717926,
        -0.9999733567237854
      ],
      "type": "VEC3"
    },
    {
      "bufferView": 1,
      "componentType": 5126,
      "count": 7808,
      "max": [
        0.9994823932647705,
        -0.00048590864753350616
      ],
      "min": [
        0.0005175983533263206,
        -0.999514102935791
      ],
      "type": "VEC2"
    },
    {
      "bufferView": 0,
      "componentType": 5125,
      "count": 40692,
      "type": "SCALAR"
    }
  ],
  "asset": {
    "extras": {
      "author": "Doms Animation Studios (https://sketchfab.com/domsanimation)",
      "license": "CC-BY-4.0 (http://creativecommons.org/licenses/by/4.0/)",
      "source": "https://sketchfab.com/3d-models/hugh-grant-oompa-loompa-wonka-photo-to-3d-8e6dc5cd7fbf4c10adf4828b93837a6e",
      "title": "hugh grant oompa loompa wonka Photo To 3D"
    },
    "generator": "Sketchfab-15.32.0",
    "version": "2.0"
  },
  "bufferViews": [
    {
      "buffer": 0,
      "byteLength": 162768,
      "name": "floatBufferViews",
      "target": 34963
    },
    {
      "buffer": 0,
      "byteLength": 62464,
      "byteOffset": 162768,
      "byteStride": 8,
      "name": "floatBufferViews",
      "target": 34962
    },
    {
      "buffer": 0,
      "byteLength": 187392,
      "byteOffset": 225232,
      "byteStride": 12,
      "name": "floatBufferViews",
      "target": 34962
    }
  ],
  "buffers": [
    {
      "byteLength": 412624,
      "uri": "scene.bin"
    }
  ],
  "images": [
    {
      "uri": "textures/pxrUsdPreviewSurface1SG_baseColor.png"
    }
  ],
  "materials": [
    {
      "name": "pxrUsdPreviewSurface1SG",
      "pbrMetallicRoughness": {
        "baseColorTexture": {
          "index": 0
        }
      }
    }
  ],
  "meshes": [
    {
      "name": "Mesh",
      "primitives": [
        {
          "attributes": {
            "NORMAL": 1,
            "POSITION": 0,
            "TEXCOORD_0": 2
          },
          "indices": 3,
          "material": 0,
          "mode": 4
        }
      ]
    }
  ],
  "nodes": [
    {
      "children": [
        1
      ],
      "matrix": [
        1.0,
        0.0,
        0.0,
        0.0,
        0.0,
        2.220446049250313e-16,
        -1.0,
        0.0,
        0.0,
        1.0,
        2.220446049250313e-16,
        0.0,
        0.0,
        0.0,
        0.0,
        1.0
      ],
      "name": "Sketchfab_model"
    },
    {
      "children": [
        2
      ],
      "matrix": [
        1.0,
        0.0,
        0.0,
        0.0,
        0.0,
        2.220446049250313e-16,
        1.0,
        0.0,
        0.0,
        -1.0,
        2.220446049250313e-16,
        0.0,
        0.0,
        0.0,
        0.0,
        1.0
      ],
      "name": "USDRoot"
    },
    {
      "children": [
        3
      ],
      "name": "world"
    },
    {
      "children": [
        4
      ],
      "name": "mesh_obj"
    },
    {
      "mesh": 0,
      "name": "Mesh"
    }
  ],
  "samplers": [
    {
      "magFilter": 9729,
      "minFilter": 9987,
      "wrapS": 10497,
      "wrapT": 10497
    }
  ],
  "scene": 0,
  "scenes": [
    {
      "name": "Sketchfab_Scene",
      "nodes": [
        0
      ]
    }
  ],
  "textures": [
    {
      "sampler": 0,
      "source": 0
    }
  ]
}
